<svg width="18" height="18" viewBox="0 0 18 18" fill="none" xmlns="http://www.w3.org/2000/svg">
<path d="M17.2981 17.1511L11.9103 11.7633C12.9416 10.5777 13.5681 9.03562 13.5681 7.34892C13.5681 3.6189 10.5513 0.602112 6.82127 0.602112C3.09125 0.602112 0.0744629 3.6189 0.0744629 7.34892C0.0744629 11.0789 3.09125 14.0957 6.82127 14.0957C8.50797 14.0957 10.0501 13.4692 11.2356 12.4476L16.6234 17.8354L17.2981 17.1511ZM6.82127 13.1319C3.63099 13.1319 1.03829 10.5392 1.03829 7.34892C1.03829 4.15864 3.63099 1.56594 6.82127 1.56594C10.0115 1.56594 12.6042 4.15864 12.6042 7.34892C12.6042 10.5392 10.0115 13.1319 6.82127 13.1319Z" fill="black"/>
</svg>
