<svg width="16" height="20" viewBox="0 0 16 20" fill="none" xmlns="http://www.w3.org/2000/svg">
<path d="M6 18.004H10C10 19.1018 9.1 20 8 20C6.9 20 6 19.1018 6 18.004ZM16 15.3593V17.006H0V15.3593L2 13.483V8.34329C2 5.42911 3.56 3.13369 6 2.37521V1.99597C6 0.578798 7.49 -0.499049 8.99 0.239476C9.64 0.558838 10 1.26742 10 1.99597V2.38519C12.44 3.13369 14 5.43909 14 8.35327V13.493L16 15.3593ZM15 15.7784L13 13.9022V8.44309C13 5.97801 11.81 4.09178 9.87 3.35326C8.61 2.82431 7.23 2.85425 6.03 3.3832C4.15 4.14168 3 6.01793 3 8.44309V13.9022L1 15.7784V16.008H15V15.7784Z" fill="#373737"/>
</svg>
